<?xml version="1.0" encoding="UTF-8" standalone="no"?>
<!-- Created with Inkscape (http://www.inkscape.org/) -->

<svg
   width="35.189621mm"
   height="35.134499mm"
   viewBox="0 0 35.189621 35.134499"
   version="1.1"
   id="svg1"
   inkscape:version="1.4.2 (f4327f4, 2025-05-13)"
   sodipodi:docname="logo_deep_orange_light_blue.svg"
   xmlns:inkscape="http://www.inkscape.org/namespaces/inkscape"
   xmlns:sodipodi="http://sodipodi.sourceforge.net/DTD/sodipodi-0.dtd"
   xmlns="http://www.w3.org/2000/svg"
   xmlns:svg="http://www.w3.org/2000/svg">
  <sodipodi:namedview
     id="namedview1"
     pagecolor="#ffffff"
     bordercolor="#000000"
     borderopacity="0.25"
     inkscape:showpageshadow="2"
     inkscape:pageopacity="0.0"
     inkscape:pagecheckerboard="false"
     inkscape:deskcolor="#d1d1d1"
     inkscape:document-units="mm"
     showguides="false"
     inkscape:zoom="0.71891835"
     inkscape:cx="162.049"
     inkscape:cy="209.34227"
     inkscape:window-width="1920"
     inkscape:window-height="1009"
     inkscape:window-x="-8"
     inkscape:window-y="-8"
     inkscape:window-maximized="1"
     inkscape:current-layer="layer1" />
  <defs
     id="defs1" />
  <g
     inkscape:label="Layer 1"
     inkscape:groupmode="layer"
     id="layer1"
     transform="translate(-62.247923,-34.337085)">
    <g
       id="text1"
       style="font-size:22.5778px;font-family:kabisat;-inkscape-font-specification:kabisat;stroke-width:0.264583"
       aria-label="JY">
      <path
         style="fill:#ff5722"
         d="m 72.842291,67.740764 q 0,0.209462 -0.03307,0.507119 -0.02205,0.297657 -0.121267,0.56224 -0.09922,0.275608 -0.275608,0.463021 -0.176389,0.198438 -0.474046,0.198438 -0.220486,0 -0.418924,-0.09922 -0.198438,-0.09922 -0.363802,-0.220486 L 63.90157,63.783035 q -0.429948,-0.319705 -0.749653,-0.771702 -0.308681,-0.440973 -0.518143,-0.959116 -0.198438,-0.518143 -0.297657,-1.069359 -0.08819,-0.540191 -0.08819,-1.058334 l 0.165364,-22.952628 q 0,-0.440972 0.09922,-0.903994 0.110243,-0.463021 0.33073,-0.848872 0.23151,-0.385851 0.595313,-0.628386 0.363802,-0.253559 0.892969,-0.253559 h 6.813028 q 0.529167,0 0.881946,0.253559 0.363802,0.242535 0.584288,0.628386 0.231511,0.385851 0.319706,0.848872 0.09922,0.463022 0.09922,0.903994 z"
         id="path1" />
      <path
         style="fill:#03a9f4"
         d="m 85.828936,55.669138 q 0.25356,0 0.418925,-0.121268 0.176389,-0.121267 0.275607,-0.297656 0.110244,-0.187414 0.154341,-0.4079 0.05512,-0.220486 0.05512,-0.429949 l 0.01103,-18.443681 q 0,-0.275608 0.06615,-0.562241 0.06615,-0.286632 0.198437,-0.518143 0.143316,-0.242534 0.363803,-0.396875 0.23151,-0.15434 0.551216,-0.15434 h 7.628827 q 0.518143,0 0.881945,0.253559 0.363803,0.242535 0.584289,0.628386 0.220486,0.385851 0.319705,0.848872 0.09922,0.463022 0.09922,0.903994 l -0.09922,30.691698 q 0,0.198438 -0.02205,0.474046 -0.02205,0.286632 -0.110244,0.551216 -0.08819,0.264583 -0.253559,0.451997 -0.15434,0.187413 -0.440973,0.187413 -0.220486,0 -0.429948,-0.121267 -0.209462,-0.110244 -0.385851,-0.25356 l -7.331171,-6.05235 q -0.407899,-0.341753 -0.71658,-0.815799 -0.308681,-0.463021 -0.518143,-0.992189 -0.198438,-0.518142 -0.297657,-1.080383 -0.09922,-0.551215 -0.09922,-1.069358 0,-0.440973 -0.09922,-0.903994 -0.09922,-0.463022 -0.319706,-0.848873 -0.220486,-0.385851 -0.584288,-0.63941 -0.352779,-0.242535 -0.881946,-0.242535 h -8.609991 q -0.529167,0 -0.89297,-0.242535 -0.352778,-0.253559 -0.584289,-0.63941 -0.220486,-0.385851 -0.319705,-0.848873 -0.09922,-0.463021 -0.09922,-0.903994 v -16.70184 q 0,-0.440972 0.09922,-0.903994 0.09922,-0.463021 0.319705,-0.848872 0.231511,-0.385851 0.584289,-0.628386 0.363803,-0.253559 0.89297,-0.253559 h 7.518584 q 0.319705,0 0.540191,0.15434 0.231511,0.154341 0.374827,0.396875 0.143316,0.231511 0.198438,0.518143 0.06615,0.286633 0.06615,0.562241 v 18.443681 q 0,0.209463 0.0441,0.429949 0.0441,0.220486 0.154341,0.4079 0.110243,0.176389 0.275607,0.297656 0.176389,0.121268 0.418924,0.121268 z"
         id="path2" />
    </g>
  </g>
</svg>
