<?xml version="1.0" encoding="UTF-8" standalone="no"?>
<!-- Created with Inkscape (http://www.inkscape.org/) -->

<svg
   width="44.240585mm"
   height="35.134499mm"
   viewBox="0 0 44.240585 35.134499"
   version="1.1"
   id="svg1"
   inkscape:version="1.4.2 (f4327f4, 2025-05-13)"
   sodipodi:docname="logo_italic_deep_orange_light_blue.svg"
   xmlns:inkscape="http://www.inkscape.org/namespaces/inkscape"
   xmlns:sodipodi="http://sodipodi.sourceforge.net/DTD/sodipodi-0.dtd"
   xmlns="http://www.w3.org/2000/svg"
   xmlns:svg="http://www.w3.org/2000/svg">
  <sodipodi:namedview
     id="namedview1"
     pagecolor="#ffffff"
     bordercolor="#000000"
     borderopacity="0.25"
     inkscape:showpageshadow="2"
     inkscape:pageopacity="0.0"
     inkscape:pagecheckerboard="true"
     inkscape:deskcolor="#d1d1d1"
     inkscape:document-units="mm"
     showguides="false"
     inkscape:zoom="0.71891835"
     inkscape:cx="169.00389"
     inkscape:cy="209.34227"
     inkscape:window-width="1920"
     inkscape:window-height="1009"
     inkscape:window-x="-8"
     inkscape:window-y="-8"
     inkscape:window-maximized="1"
     inkscape:current-layer="layer1" />
  <defs
     id="defs1" />
  <g
     inkscape:label="Layer 1"
     inkscape:groupmode="layer"
     id="layer1"
     transform="translate(-60.528129,-34.337085)">
    <g
       id="text1"
       style="font-size:22.5778px;font-family:kabisat;-inkscape-font-specification:kabisat;stroke-width:0.264583"
       aria-label="JY">
      <path
         style="font-style:italic;-inkscape-font-specification:'kabisat Italic';fill:#ff5722"
         d="m 68.686124,67.740764 q -0.07717,0.209462 -0.220487,0.507119 -0.132292,0.297657 -0.330729,0.56224 -0.198438,0.275608 -0.451997,0.463021 -0.242535,0.198438 -0.540192,0.198438 -0.220486,0 -0.385851,-0.09922 -0.15434,-0.09922 -0.275608,-0.220486 l -5.302696,-5.368842 q -0.319705,-0.319705 -0.463021,-0.771702 -0.154341,-0.440973 -0.165365,-0.959116 -0.02205,-0.518143 0.08819,-1.069359 0.09922,-0.540191 0.297657,-1.058334 l 8.510772,-22.952628 q 0.165365,-0.440972 0.440973,-0.903994 0.275608,-0.463021 0.63941,-0.848872 0.363803,-0.385851 0.8158,-0.628386 0.451997,-0.253559 0.981164,-0.253559 h 6.813028 q 0.529167,0 0.793751,0.253559 0.275608,0.242535 0.352778,0.628386 0.08819,0.385851 0.01102,0.848872 -0.06615,0.463022 -0.23151,0.903994 z"
         id="path3" />
      <path
         style="font-style:italic;-inkscape-font-specification:'kabisat Italic';fill:#03a9f4"
         d="m 86.060447,55.669138 q 0.253559,0 0.463021,-0.121268 0.220487,-0.121267 0.385852,-0.297656 0.176389,-0.187414 0.30868,-0.4079 0.132292,-0.220486 0.209462,-0.429949 l 6.724834,-18.443681 q 0.09922,-0.275608 0.264583,-0.562241 0.165365,-0.286632 0.385851,-0.518143 0.231511,-0.242534 0.507119,-0.396875 0.286632,-0.15434 0.606337,-0.15434 h 7.628824 q 0.51815,0 0.78273,0.253559 0.27561,0.242535 0.35278,0.628386 0.0882,0.385851 0.022,0.848872 -0.0661,0.463022 -0.23151,0.903994 L 93.204204,67.663594 q -0.06615,0.198438 -0.198437,0.474046 -0.121268,0.286632 -0.308681,0.551216 -0.176389,0.264583 -0.4079,0.451997 -0.231511,0.187413 -0.518143,0.187413 -0.220486,0 -0.385851,-0.121267 -0.165365,-0.110244 -0.286632,-0.25356 l -5.137332,-6.05235 q -0.286632,-0.341753 -0.429948,-0.815799 -0.132292,-0.463021 -0.143316,-0.992189 -0.01103,-0.518142 0.08819,-1.080383 0.110243,-0.551215 0.297657,-1.069358 0.165365,-0.440973 0.231511,-0.903994 0.07717,-0.463022 -0.01103,-0.848873 -0.07717,-0.385851 -0.352778,-0.63941 -0.264584,-0.242535 -0.793751,-0.242535 h -8.609991 q -0.529167,0 -0.804775,-0.242535 -0.264584,-0.253559 -0.352778,-0.63941 -0.07717,-0.385851 -0.01103,-0.848873 0.06615,-0.463021 0.231511,-0.903994 l 6.074398,-16.70184 q 0.165365,-0.440972 0.429949,-0.903994 0.275608,-0.463021 0.63941,-0.848872 0.363803,-0.385851 0.804775,-0.628386 0.451997,-0.253559 0.981165,-0.253559 h 7.518584 q 0.319705,0 0.48507,0.15434 0.176389,0.154341 0.23151,0.396875 0.05512,0.231511 0.01102,0.518143 -0.03307,0.286633 -0.132291,0.562241 l -6.713809,18.443681 q -0.07717,0.209463 -0.121268,0.429949 -0.03307,0.220486 0,0.4079 0.0441,0.176389 0.176389,0.297656 0.132292,0.121268 0.374827,0.121268 z"
         id="path4" />
    </g>
  </g>
</svg>
